# xmcd CD database file
#
# Track frame offsets:
#	150
#	22275
#	44805
#	65000
#	80975
#	112040
#	130100
#	158500
#	177215
#	194465
#	213362
#	234120
#	255325
#
# Disc length: 3663 seconds
#
# Revision: 1
# Processed by: cddbd v1.5.2PL0 Copyright (c) Steve Scherf et al.
# Submitted via: CDex 1.51
#
DISCID=b80e4d0d
DTITLE=Lynch Mob - Smoke and Mirrors
DYEAR=2009
DGENRE=Blues
TTITLE0=21st Century Man
TTITLE1=Smoke and Mirrors
TTITLE2=Lucky Man
TTITLE3=My Kind Of Healer
TTITLE4=Time Keepers
TTITLE5=Revolution Hero
TTITLE6=Let The Music Be Your Master
TTITLE7=The Fascist
TTITLE8=Where Do You Sleep At Night?
TTITLE9=Madly Backwards
TTITLE10=We Will Remain
TTITLE11=Before I Close My Eyes
TTITLE12=Mansions In The Sky
EXTD=YEAR: 2009
EXTT0=
EXTT1=
EXTT2=
EXTT3=
EXTT4=
EXTT5=
EXTT6=
EXTT7=
EXTT8=
EXTT9=
EXTT10=
EXTT11=
EXTT12=
PLAYORDER=
